<?xml version="1.0" ?><svg id="flat" viewBox="0 0 64 64" xmlns="http://www.w3.org/2000/svg"><defs><style>.cls-1{fill:#dcd4cd;}.cls-2{fill:#f0e8e4;}.cls-3{fill:#fff;}</style></defs><title/><path class="cls-1" d="M4,22V44c0,5.5228,12.536,10,28,10s28-4.4772,28-10V22Z"/><path class="cls-2" d="M32,11C16.536,11,4,15.9249,4,22c0,3.3819,3.8879,6.4059,10,8.4236l2,6.175a45.5677,45.5677,0,0,0,32,0l2-6.175C56.1121,28.4059,60,25.3819,60,22,60,15.9249,47.464,11,32,11Z"/><path class="cls-1" d="M53,22c0-3.59-9.402-6.5-21-6.5S11,18.41,11,22c0,2.077,3.1588,3.922,8.0577,5.1119l1.753,5.9311A40.96,40.96,0,0,0,32,34.5986,40.9225,40.9225,0,0,0,43.1893,33.043l1.753-5.9311C49.8412,25.922,53,24.077,53,22Z"/><path class="cls-3" d="M42.15,46.3633a.4351.4351,0,0,1,0-.7266A2,2,0,1,0,39,44H25a2,2,0,1,0-3.15,1.6367.4351.4351,0,0,1,0,.7266A2,2,0,1,0,25,48H39a2,2,0,1,0,3.15-1.6367Z"/></svg>