<?xml version="1.0" ?><svg id="flat" viewBox="0 0 64 64" xmlns="http://www.w3.org/2000/svg"><defs><style>.cls-1{fill:#373737;}.cls-2{fill:#c37f37;}.cls-3{fill:#ffcb1e;}.cls-4{fill:#efb920;}.cls-5{fill:#ffde1e;}.cls-6{fill:#ff4d38;}</style></defs><title/><path class="cls-1" d="M11,26a1,1,0,0,0-1,1V45a1,1,0,0,0,2,0V27A1,1,0,0,0,11,26Z"/><path class="cls-2" d="M55.8507,4.8926a1.52,1.52,0,0,0-2.0434-.74L10.8751,25.021a1.58,1.58,0,0,0-.7257,2.0864A1.5314,1.5314,0,0,0,11.5349,28a1.5015,1.5015,0,0,0,.6579-.1523L55.1249,6.9789A1.58,1.58,0,0,0,55.8507,4.8926Z"/><path class="cls-3" d="M17.1619,45.9193c3.1242,3.1242,6.2841,8.2621,5.1518,9.3944s-6.27-2.0276-9.3944-5.1518S9.8284,45.1716,11,44,14.0377,42.7951,17.1619,45.9193Z"/><path class="cls-4" d="M11,44a2.522,2.522,0,0,0-.5679.8461L21.065,55.479a1.3735,1.3735,0,0,0,1.2487-.1653,1.3738,1.3738,0,0,0,.1654-1.2487L11.8461,43.432A2.5237,2.5237,0,0,0,11,44Z"/><path class="cls-5" d="M14,49.7143C14,54.1325,12.6013,60,11,60S8,54.1325,8,49.7143,9.3432,44,11,44,14,45.296,14,49.7143Z"/><path class="cls-4" d="M12,44.1968a2.6391,2.6391,0,0,0-2,0V59.2337c.3161.4776.6526.7663,1,.7663s.6839-.2887,1-.7663Z"/><circle class="cls-6" cx="11" cy="36" r="3"/></svg>