<?xml version="1.0" ?><svg id="flat" viewBox="0 0 64 64" xmlns="http://www.w3.org/2000/svg"><defs><style>.cls-1{fill:#ecf0f1;}.cls-2{fill:#d4402f;}.cls-3{fill:#ff4d38;}.cls-4{fill:#f66b60;}.cls-5{fill:#373737;}.cls-6{fill:#dcd4cd;}</style></defs><title/><path class="cls-1" d="M32,42.5a1,1,0,0,1-1-1v-8a1,1,0,0,1,2,0v8A1,1,0,0,1,32,42.5Z"/><path class="cls-2" d="M32,18.5c15.464,0,28,3.5817,28,8v-11c0-4.4183-12.536-8-28-8s-28,3.5817-28,8v11C4,22.0817,16.536,18.5,32,18.5Z"/><path class="cls-3" d="M32,23.5c-15.464,0-28-3.5817-28-8v11c0,4.4183,12.536,8,28,8s28-3.5817,28-8v-11C60,19.9183,47.464,23.5,32,23.5Z"/><path class="cls-4" d="M37.5,29A5.5,5.5,0,0,0,32,23.5c-15.464,0-28-3.5817-28-8v11c0,4.4183,12.536,8,28,8A5.5,5.5,0,0,0,37.5,29Z"/><circle class="cls-5" cx="23" cy="28.5" r="1"/><circle class="cls-5" cx="12" cy="26.5" r="1"/><rect class="cls-6" height="12.5378" rx="2.0896" ry="2.0896" transform="translate(-24.9221 36.8327) rotate(-45)" width="12.5378" x="25.7311" y="42.2311"/></svg>