<?xml version="1.0" ?><svg id="flat" viewBox="0 0 64 64" xmlns="http://www.w3.org/2000/svg"><defs><style>.cls-1{fill:#ff4d38;}.cls-2{fill:#cc3e2d;}.cls-3{fill:#ff7160;}.cls-4{fill:#f26b61;}.cls-5{fill:#fff;}.cls-6{fill:#f3efed;}</style></defs><title/><path class="cls-1" d="M60,33.79a13.5662,13.5662,0,0,1-4.15,9.76,14.2984,14.2984,0,0,1-10,4.04L20.41,48A16.2022,16.2022,0,0,1,4,32a15.9253,15.9253,0,0,1,9.18-14.36A16.4224,16.4224,0,0,1,20.37,16a17.1047,17.1047,0,0,1,2.92.25l25.05,3.96a14.1681,14.1681,0,0,1,9.1,5.66A13.5634,13.5634,0,0,1,60,33.79Z"/><path class="cls-2" d="M49.85,45.59,24.41,46A16.2022,16.2022,0,0,1,8,30a15.8137,15.8137,0,0,1,7.0145-13.1074A16.1287,16.1287,0,0,0,13.18,17.64,15.9253,15.9253,0,0,0,4,32,16.2022,16.2022,0,0,0,20.41,48l25.44-.41a14.3,14.3,0,0,0,8.328-2.6649A14.4245,14.4245,0,0,1,49.85,45.59Z"/><path class="cls-3" d="M57.44,25.87C52.74,28.42,46.21,30,39,30c-13.33,0-24.31-5.4-25.82-12.36A16.4224,16.4224,0,0,1,20.37,16a17.1047,17.1047,0,0,1,2.92.25l25.05,3.96A14.1681,14.1681,0,0,1,57.44,25.87Z"/><path class="cls-4" d="M39,28c-12.19,0-22.3915-4.5214-25.2055-10.6168-.2034.0887-.4155.16-.6145.2568C14.69,24.6,25.67,30,39,30c7.21,0,13.74-1.58,18.44-4.13a13.9811,13.9811,0,0,0-1.1886-1.4143A40.6313,40.6313,0,0,1,39,28Z"/><path class="cls-5" d="M19.96,25.53C24.7056,28.2793,31.4775,30,39,30a45.516,45.516,0,0,0,10.5377-1.2068C46.725,25.3884,40.156,23,32.5,23A29.8387,29.8387,0,0,0,19.96,25.53Z"/><path class="cls-6" d="M32.5,25a42.5927,42.5927,0,0,0-10.9926,1.3414A40.4127,40.4127,0,0,0,39,30a45.5842,45.5842,0,0,0,10.19-1.1348C46.2126,26.5805,39.8643,25,32.5,25Z"/></svg>